<svg version="1.1" id="Layer_1" xmlns="http://www.w3.org/2000/svg" xmlns:xlink="http://www.w3.org/1999/xlink" x="0px" y="0px"
	 width="100%" viewBox="0 0 1476 1476" enable-background="new 0 0 1476 1476" xml:space="preserve">
<path fill="#FCF3E9" opacity="1.000000" stroke="none" 
	d="
M719.000000,1477.000000 
	C479.333374,1477.000000 240.166748,1477.000000 1.000064,1477.000000 
	C1.000000,1231.000122 1.000000,985.000183 1.000000,739.000244 
	C1.000000,493.000305 1.000000,247.000336 1.000000,1.000294 
	C492.999786,1.000196 984.999573,1.000196 1476.999512,1.000098 
	C1476.999756,492.999664 1476.999756,984.999329 1476.999878,1476.999512 
	C1224.500000,1477.000000 972.000000,1477.000000 719.000000,1477.000000 
M340.386353,841.874939 
	C328.164856,887.802307 315.943359,933.729675 303.721863,979.657043 
	C303.339905,979.675720 302.957977,979.694458 302.576019,979.713196 
	C289.417969,927.890747 276.259888,876.068237 263.134552,824.374817 
	C247.779739,824.374817 232.903046,824.374817 217.608490,824.374817 
	C218.064148,826.255371 218.351212,827.701721 218.765808,829.110596 
	C222.844894,842.970642 226.933853,856.827881 231.041412,870.679504 
	C246.679245,923.413818 262.410065,976.120972 277.829712,1028.918945 
	C279.290131,1033.919556 281.376129,1035.312744 286.377594,1035.132935 
	C297.693848,1034.726196 309.044861,1034.726318 320.360687,1035.139038 
	C325.037537,1035.309814 326.541931,1033.598755 327.619904,1029.375488 
	C336.612946,994.142883 345.831696,958.967896 354.992645,923.778198 
	C358.757172,909.317444 362.546814,894.863342 366.325012,880.406189 
	C366.678894,880.398926 367.032745,880.391663 367.386627,880.384460 
	C380.977966,931.900574 394.569305,983.416748 408.179657,1035.005005 
	C422.085388,1035.005005 435.411011,1034.793335 448.723022,1035.125488 
	C453.103333,1035.234863 454.655365,1033.658813 455.832520,1029.686157 
	C472.403412,973.761780 489.146729,917.888550 505.831421,861.997803 
	C509.564331,849.493164 513.232605,836.969238 517.065308,823.998474 
	C503.135315,823.998474 489.817200,824.130127 476.504913,823.909973 
	C472.985443,823.851807 471.714355,824.977051 470.865723,828.355713 
	C458.658630,876.956177 446.296082,925.517639 433.946747,974.082275 
	C433.458069,976.004089 432.729950,977.864990 431.708923,980.993774 
	C424.199585,953.007141 417.077026,926.445740 409.945129,899.886841 
	C403.525543,875.980591 397.143707,852.063782 390.563690,828.201721 
	C390.118347,826.586548 388.171570,824.210999 386.880890,824.183716 
	C373.075714,823.891663 359.261993,824.002136 345.239868,824.002136 
	C343.666565,829.901672 342.172028,835.505920 340.386353,841.874939 
M538.971619,621.423401 
	C548.202209,605.992188 550.099487,589.408813 545.377258,572.350220 
	C539.761108,552.062317 524.303711,542.213257 505.075226,537.318054 
	C505.241119,536.669800 505.231201,536.478882 505.320312,536.400391 
	C505.688995,536.075745 506.049988,535.710876 506.480621,535.492432 
	C526.093323,525.544189 534.333984,509.358185 533.148804,487.707275 
	C532.262207,471.511414 525.405518,459.016876 511.366516,450.723938 
	C497.044952,442.264099 481.192719,439.398438 464.892792,439.166046 
	C440.242126,438.814545 415.583405,439.022705 390.928131,439.009674 
	C389.809357,439.009094 388.690521,439.171509 387.447327,439.267578 
	C387.447327,509.603821 387.447327,579.620239 387.447327,650.005859 
	C389.446838,650.005859 391.088440,650.005859 392.730011,650.005798 
	C417.385468,650.005310 442.042969,650.186951 466.695251,649.908081 
	C475.651306,649.806702 484.707794,649.269409 493.520538,647.768799 
	C511.539307,644.700623 527.802246,638.020325 538.971619,621.423401 
M1095.329224,834.105103 
	C1094.833984,832.691467 1094.158325,831.312683 1093.876587,829.857666 
	C1092.972290,825.185852 1090.439453,823.694214 1085.573364,823.863953 
	C1073.754883,824.276245 1061.910278,824.127563 1050.081299,823.918396 
	C1046.580566,823.856445 1044.935059,824.808289 1043.688965,828.297913 
	C1022.832581,886.703674 1001.805054,945.048401 980.813049,1003.405701 
	C977.115784,1013.683960 973.406494,1023.957947 969.605469,1034.503784 
	C970.811890,1034.746460 971.421631,1034.974976 972.031799,1034.976074 
	C985.364441,1035.000488 998.699280,1035.112549 1012.026367,1034.841797 
	C1013.467712,1034.812500 1015.617065,1032.804565 1016.161316,1031.263428 
	C1020.647278,1018.562256 1024.952271,1005.792786 1029.024414,992.952881 
	C1030.076660,989.635132 1031.655518,988.704590 1035.043823,988.728516 
	C1057.541504,988.887451 1080.041382,988.885193 1102.539062,988.732056 
	C1105.825684,988.709656 1107.120972,989.846863 1108.054810,992.864563 
	C1111.889526,1005.255859 1116.136597,1017.520508 1119.900513,1029.932373 
	C1121.032471,1033.664917 1122.437134,1035.376709 1126.694824,1035.124756 
	C1134.002197,1034.692505 1141.353638,1035.005371 1148.686646,1035.005371 
	C1154.763916,1035.005371 1160.841187,1035.005371 1167.786865,1035.005371 
	C1143.528076,967.674927 1119.594116,901.246277 1095.329224,834.105103 
M1038.252319,503.208862 
	C1016.552551,487.652679 970.510925,490.626801 953.140869,526.215515 
	C938.343384,556.533325 939.218079,588.091003 951.742065,618.749939 
	C968.912231,660.782898 1023.024048,661.240295 1046.891968,635.474670 
	C1048.727173,633.493591 1050.609619,631.556396 1052.832642,629.217346 
	C1053.552612,636.540100 1054.198486,643.110168 1054.835938,649.594116 
	C1068.439819,649.594116 1081.493286,649.594116 1094.532959,649.594116 
	C1094.532959,579.268677 1094.532959,509.356232 1094.532959,439.280762 
	C1080.628784,439.280762 1067.054321,439.280762 1052.813477,439.280762 
	C1052.813477,465.160492 1052.813477,490.764679 1052.813477,516.190125 
	C1047.961426,511.831085 1043.399536,507.732697 1038.252319,503.208862 
M761.500000,1035.006592 
	C768.255554,1035.006592 775.011108,1035.006592 782.003113,1035.006592 
	C782.003113,1032.397095 782.003601,1030.577148 782.003052,1028.757324 
	C781.993835,998.425110 781.961182,968.092834 782.026428,937.760803 
	C782.030823,935.695740 782.104553,933.095337 783.270508,931.652771 
	C792.852783,919.796997 804.799561,912.328064 820.666199,913.110413 
	C830.877930,913.613953 837.598328,919.024719 839.883667,928.962830 
	C840.916748,933.455017 841.246704,938.192871 841.262573,942.821411 
	C841.360413,971.486633 841.278015,1000.152405 841.255859,1028.817993 
	C841.254333,1030.755981 841.255676,1032.694092 841.255676,1034.650757 
	C855.532837,1034.650757 869.100830,1034.650757 883.006836,1034.650757 
	C883.006836,1032.820801 883.006775,1031.344849 883.006775,1029.869019 
	C883.005676,998.370178 883.055603,966.871094 882.952759,935.372620 
	C882.935913,930.228210 882.521912,925.047791 881.817810,919.949463 
	C878.755005,897.771057 864.648315,883.167175 843.004211,880.400574 
	C820.696594,877.549255 801.046936,883.241760 785.326233,900.083008 
	C784.177979,901.313110 782.931152,902.451172 780.777222,904.569092 
	C780.777222,876.821594 780.777222,850.574707 780.777222,824.333008 
	C767.077393,824.333008 753.836609,824.333008 740.407349,824.333008 
	C740.407349,894.583740 740.407349,964.498108 740.407349,1035.006592 
	C747.273621,1035.006592 753.886902,1035.006592 761.500000,1035.006592 
M683.842468,540.500000 
	C683.848328,558.659485 683.893921,576.819092 683.800415,594.978088 
	C683.790771,596.859619 683.529602,599.227722 682.411072,600.540039 
	C671.592651,613.232788 658.188965,620.208740 641.087036,617.853210 
	C633.388916,616.792908 627.611023,612.582275 625.432617,604.964294 
	C624.033813,600.072937 623.265259,594.836121 623.230530,589.747253 
	C623.033997,560.927002 623.144531,532.104675 623.150452,503.283051 
	C623.150818,501.344147 623.150452,499.405243 623.150452,497.292175 
	C609.121399,497.292175 595.720398,497.292175 582.080933,497.292175 
	C581.974426,498.858002 581.809570,500.150665 581.809753,501.443359 
	C581.814697,533.596924 581.785706,565.750671 581.910522,597.903870 
	C581.929810,602.874268 582.255981,607.917480 583.148926,612.797424 
	C586.486816,631.038330 595.703735,644.913269 614.403137,649.849304 
	C632.303345,654.574402 649.872498,652.688904 665.869080,642.783508 
	C672.289734,638.807861 677.978821,633.650940 684.358215,628.757629 
	C684.673828,635.731812 684.992188,642.766968 685.308105,649.747498 
	C698.739990,649.747498 711.676941,649.747498 724.851929,649.747498 
	C724.851929,598.797607 724.851929,548.115601 724.851929,497.315063 
	C711.099670,497.315063 697.699463,497.315063 683.842285,497.315063 
	C683.842285,511.583984 683.842285,525.541992 683.842468,540.500000 
M691.505859,1035.003784 
	C696.929260,1035.003784 702.352722,1035.003784 707.714722,1035.003784 
	C707.714722,1023.943298 707.714722,1013.677429 707.714722,1002.918518 
	C703.148438,1002.918518 698.856628,1002.923950 694.564819,1002.917480 
	C680.022766,1002.895508 675.418396,998.489990 674.809143,984.017822 
	C674.767151,983.018860 674.724609,982.018860 674.724548,981.019348 
	C674.723938,959.854492 674.721619,938.689575 674.756287,917.524780 
	C674.758057,916.438965 675.088196,915.353699 675.349182,913.755493 
	C686.325073,913.755493 697.057434,913.755493 707.684570,913.755493 
	C707.684570,902.924377 707.684570,892.665283 707.684570,881.865906 
	C696.631531,881.865906 685.888245,881.865906 674.663086,881.865906 
	C674.663086,869.730896 674.663086,858.135010 674.663086,846.272339 
	C660.605957,846.272339 647.046631,846.272339 632.871338,846.272339 
	C632.871338,858.258972 632.871338,869.977783 632.871338,882.078857 
	C624.150940,882.078857 616.041565,882.078857 607.677002,882.078857 
	C607.677002,892.870667 607.677002,903.258972 607.677002,914.216858 
	C616.265137,914.216858 624.504944,914.216858 632.994385,914.216858 
	C632.994385,937.104736 632.930969,959.422363 633.040771,981.739136 
	C633.067017,987.051819 633.405396,992.394714 634.058533,997.666931 
	C636.553528,1017.807007 647.213562,1029.311157 667.182312,1032.821777 
	C674.849243,1034.169678 682.728333,1034.310669 691.505859,1035.003784 
M854.280212,598.330261 
	C854.591736,602.644897 854.662903,606.993103 855.260376,611.267761 
	C856.991638,623.653809 860.626892,635.195190 872.353699,641.896973 
	C888.442017,651.091248 906.125977,650.041138 923.767334,649.920410 
	C923.767334,638.818665 923.767334,628.387817 923.767334,617.172058 
	C919.077454,617.172058 914.613831,617.388672 910.178772,617.124939 
	C902.071960,616.642883 898.274414,613.381836 896.967651,605.516602 
	C896.236145,601.113892 895.956726,596.589600 895.952698,592.119629 
	C895.908203,543.158752 895.958313,494.197784 895.982544,445.236816 
	C895.983521,443.298584 895.982666,441.360352 895.982666,439.307983 
	C881.798828,439.307983 868.241333,439.307983 854.271667,439.307983 
	C854.271667,492.201385 854.271667,544.783936 854.280212,598.330261 
M1237.096558,981.500000 
	C1237.096558,929.116882 1237.096558,876.733765 1237.096558,824.408875 
	C1221.974121,824.408875 1207.598755,824.408875 1193.266846,824.408875 
	C1193.266846,894.707520 1193.266846,964.596924 1193.266846,1034.680298 
	C1207.912354,1034.680298 1222.289673,1034.680298 1237.096680,1034.680298 
	C1237.096680,1017.074097 1237.096680,999.787048 1237.096558,981.500000 
M540.196350,966.500000 
	C540.196350,989.244690 540.196350,1011.989319 540.196350,1034.604736 
	C554.617126,1034.604736 568.187073,1034.604736 581.698364,1034.604736 
	C581.698364,983.616699 581.698364,933.027222 581.698364,882.313354 
	C567.827454,882.313354 554.263245,882.313354 540.196594,882.313354 
	C540.196594,910.251221 540.196594,937.875610 540.196350,966.500000 
M769.941895,527.500000 
	C769.941895,568.213867 769.941895,608.927795 769.941895,649.679199 
	C784.063721,649.679199 797.467285,649.679199 810.948730,649.679199 
	C810.948730,598.704895 810.948730,548.052368 810.948730,497.318817 
	C797.153198,497.318817 783.759827,497.318817 769.941895,497.318817 
	C769.941895,507.254456 769.941895,516.877197 769.941895,527.500000 
M542.291809,828.856384 
	C533.776306,841.214539 538.091309,856.662415 551.512512,860.426147 
	C556.185303,861.736572 561.416931,862.065979 566.257629,861.555908 
	C576.445740,860.482178 582.788147,854.362915 584.483887,845.237854 
	C586.001587,837.070068 582.286133,828.774353 575.315735,824.721008 
	C567.348267,820.088013 549.792297,819.876038 542.291809,828.856384 
M768.076538,450.800323 
	C767.923096,454.079498 767.125366,457.482727 767.728577,460.616241 
	C770.244690,473.687897 783.639648,479.983307 799.495056,475.866791 
	C812.559509,472.474884 818.456482,457.459717 811.222473,445.999207 
	C806.127441,437.927490 798.060730,436.347504 789.497192,436.559845 
	C779.889954,436.798065 771.958984,440.197357 768.076538,450.800323 
z"/>
<path fill="#FE7E48" opacity="1.000000" stroke="none" 
	d="
M340.531921,841.492554 
	C342.172028,835.505920 343.666565,829.901672 345.239868,824.002136 
	C359.261993,824.002136 373.075714,823.891663 386.880890,824.183716 
	C388.171570,824.210999 390.118347,826.586548 390.563690,828.201721 
	C397.143707,852.063782 403.525543,875.980591 409.945129,899.886841 
	C417.077026,926.445740 424.199585,953.007141 431.708923,980.993774 
	C432.729950,977.864990 433.458069,976.004089 433.946747,974.082275 
	C446.296082,925.517639 458.658630,876.956177 470.865723,828.355713 
	C471.714355,824.977051 472.985443,823.851807 476.504913,823.909973 
	C489.817200,824.130127 503.135315,823.998474 517.065308,823.998474 
	C513.232605,836.969238 509.564331,849.493164 505.831421,861.997803 
	C489.146729,917.888550 472.403412,973.761780 455.832520,1029.686157 
	C454.655365,1033.658813 453.103333,1035.234863 448.723022,1035.125488 
	C435.411011,1034.793335 422.085388,1035.005005 408.179657,1035.005005 
	C394.569305,983.416748 380.977966,931.900574 367.386627,880.384460 
	C367.032745,880.391663 366.678894,880.398926 366.325012,880.406189 
	C362.546814,894.863342 358.757172,909.317444 354.992645,923.778198 
	C345.831696,958.967896 336.612946,994.142883 327.619904,1029.375488 
	C326.541931,1033.598755 325.037537,1035.309814 320.360687,1035.139038 
	C309.044861,1034.726318 297.693848,1034.726196 286.377594,1035.132935 
	C281.376129,1035.312744 279.290131,1033.919556 277.829712,1028.918945 
	C262.410065,976.120972 246.679245,923.413818 231.041412,870.679504 
	C226.933853,856.827881 222.844894,842.970642 218.765808,829.110596 
	C218.351212,827.701721 218.064148,826.255371 217.608490,824.374817 
	C232.903046,824.374817 247.779739,824.374817 263.134552,824.374817 
	C276.259888,876.068237 289.417969,927.890747 302.576019,979.713196 
	C302.957977,979.694458 303.339905,979.675720 303.721863,979.657043 
	C315.943359,933.729675 328.164856,887.802307 340.531921,841.492554 
z"/>
<path fill="#FE7E48" opacity="1.000000" stroke="none" 
	d="
M538.784180,621.733154 
	C527.802246,638.020325 511.539307,644.700623 493.520538,647.768799 
	C484.707794,649.269409 475.651306,649.806702 466.695251,649.908081 
	C442.042969,650.186951 417.385468,650.005310 392.730011,650.005798 
	C391.088440,650.005859 389.446838,650.005859 387.447327,650.005859 
	C387.447327,579.620239 387.447327,509.603821 387.447327,439.267578 
	C388.690521,439.171509 389.809357,439.009094 390.928131,439.009674 
	C415.583405,439.022705 440.242126,438.814545 464.892792,439.166046 
	C481.192719,439.398438 497.044952,442.264099 511.366516,450.723938 
	C525.405518,459.016876 532.262207,471.511414 533.148804,487.707275 
	C534.333984,509.358185 526.093323,525.544189 506.480621,535.492432 
	C506.049988,535.710876 505.688995,536.075745 505.320312,536.400391 
	C505.231201,536.478882 505.241119,536.669800 505.075226,537.318054 
	C524.303711,542.213257 539.761108,552.062317 545.377258,572.350220 
	C550.099487,589.408813 548.202209,605.992188 538.784180,621.733154 
M431.269806,601.468506 
	C431.269775,603.633972 431.529388,605.837708 431.217285,607.957214 
	C430.502991,612.807800 432.752106,613.837341 437.137878,613.704224 
	C445.957672,613.436584 454.811523,614.021118 463.614532,613.556885 
	C470.712524,613.182556 477.966003,612.545959 484.778625,610.673035 
	C497.020874,607.307373 503.050629,597.835632 502.985687,584.105408 
	C502.928986,572.118225 497.272522,564.719727 484.852966,560.957275 
	C467.410400,555.673096 449.542786,559.076477 431.270233,557.916870 
	C431.270233,572.587646 431.270233,586.533386 431.269806,601.468506 
M431.269806,509.494232 
	C431.269806,514.259460 431.269806,519.024658 431.269806,524.052612 
	C442.772278,524.052612 453.575562,524.541443 464.298889,523.828308 
	C469.038208,523.513184 474.014038,521.437683 478.185211,518.978577 
	C487.501892,513.485779 489.646515,504.417023 488.430664,494.336914 
	C487.198090,484.117737 480.965546,477.762817 471.209290,476.257782 
	C462.085999,474.850372 452.689453,475.176270 443.409515,474.840271 
	C439.503052,474.698883 435.587158,474.816772 431.270203,474.816772 
	C431.270203,486.597260 431.270203,497.546539 431.269806,509.494232 
z"/>
<path fill="#FE7E48" opacity="1.000000" stroke="none" 
	d="
M1095.494751,834.461426 
	C1119.594116,901.246277 1143.528076,967.674927 1167.786865,1035.005371 
	C1160.841187,1035.005371 1154.763916,1035.005371 1148.686646,1035.005371 
	C1141.353638,1035.005371 1134.002197,1034.692505 1126.694824,1035.124756 
	C1122.437134,1035.376709 1121.032471,1033.664917 1119.900513,1029.932373 
	C1116.136597,1017.520508 1111.889526,1005.255859 1108.054810,992.864563 
	C1107.120972,989.846863 1105.825684,988.709656 1102.539062,988.732056 
	C1080.041382,988.885193 1057.541504,988.887451 1035.043823,988.728516 
	C1031.655518,988.704590 1030.076660,989.635132 1029.024414,992.952881 
	C1024.952271,1005.792786 1020.647278,1018.562256 1016.161316,1031.263428 
	C1015.617065,1032.804565 1013.467712,1034.812500 1012.026367,1034.841797 
	C998.699280,1035.112549 985.364441,1035.000488 972.031799,1034.976074 
	C971.421631,1034.974976 970.811890,1034.746460 969.605469,1034.503784 
	C973.406494,1023.957947 977.115784,1013.683960 980.813049,1003.405701 
	C1001.805054,945.048401 1022.832581,886.703674 1043.688965,828.297913 
	C1044.935059,824.808289 1046.580566,823.856445 1050.081299,823.918396 
	C1061.910278,824.127563 1073.754883,824.276245 1085.573364,823.863953 
	C1090.439453,823.694214 1092.972290,825.185852 1093.876587,829.857666 
	C1094.158325,831.312683 1094.833984,832.691467 1095.494751,834.461426 
M1055.453857,907.972473 
	C1050.755859,922.468201 1046.057983,936.963989 1041.292358,951.668579 
	C1059.480835,951.668579 1077.176880,951.668579 1095.582520,951.668579 
	C1086.546143,923.910400 1077.675415,896.661499 1068.402222,868.176453 
	C1063.918945,882.051270 1059.848267,894.649109 1055.453857,907.972473 
z"/>
<path fill="#FE7E48" opacity="1.000000" stroke="none" 
	d="
M1038.544922,503.421570 
	C1043.399536,507.732697 1047.961426,511.831085 1052.813477,516.190125 
	C1052.813477,490.764679 1052.813477,465.160492 1052.813477,439.280762 
	C1067.054321,439.280762 1080.628784,439.280762 1094.532959,439.280762 
	C1094.532959,509.356232 1094.532959,579.268677 1094.532959,649.594116 
	C1081.493286,649.594116 1068.439819,649.594116 1054.835938,649.594116 
	C1054.198486,643.110168 1053.552612,636.540100 1052.832642,629.217346 
	C1050.609619,631.556396 1048.727173,633.493591 1046.891968,635.474670 
	C1023.024048,661.240295 968.912231,660.782898 951.742065,618.749939 
	C939.218079,588.091003 938.343384,556.533325 953.140869,526.215515 
	C970.510925,490.626801 1016.552551,487.652679 1038.544922,503.421570 
M1020.960205,620.747559 
	C1033.406738,619.184143 1042.473267,612.177734 1049.321899,602.261963 
	C1051.427124,599.213928 1052.719238,595.041443 1052.879150,591.319092 
	C1053.343140,580.521484 1052.715820,569.677124 1053.171387,558.878784 
	C1053.427979,552.796753 1051.672241,547.784790 1048.058838,543.224304 
	C1045.998169,540.623657 1043.832764,538.074463 1041.471680,535.748596 
	C1023.497620,518.043030 996.439270,524.509521 989.005615,548.551941 
	C983.868469,565.166870 984.370361,582.104797 988.995605,598.758240 
	C993.374329,614.524109 1003.651306,621.515320 1020.960205,620.747559 
z"/>
<path fill="#FE7E48" opacity="1.000000" stroke="none" 
	d="
M761.000061,1035.006592 
	C753.886902,1035.006592 747.273621,1035.006592 740.407349,1035.006592 
	C740.407349,964.498108 740.407349,894.583740 740.407349,824.333008 
	C753.836609,824.333008 767.077393,824.333008 780.777222,824.333008 
	C780.777222,850.574707 780.777222,876.821594 780.777222,904.569092 
	C782.931152,902.451172 784.177979,901.313110 785.326233,900.083008 
	C801.046936,883.241760 820.696594,877.549255 843.004211,880.400574 
	C864.648315,883.167175 878.755005,897.771057 881.817810,919.949463 
	C882.521912,925.047791 882.935913,930.228210 882.952759,935.372620 
	C883.055603,966.871094 883.005676,998.370178 883.006775,1029.869019 
	C883.006775,1031.344849 883.006836,1032.820801 883.006836,1034.650757 
	C869.100830,1034.650757 855.532837,1034.650757 841.255676,1034.650757 
	C841.255676,1032.694092 841.254333,1030.755981 841.255859,1028.817993 
	C841.278015,1000.152405 841.360413,971.486633 841.262573,942.821411 
	C841.246704,938.192871 840.916748,933.455017 839.883667,928.962830 
	C837.598328,919.024719 830.877930,913.613953 820.666199,913.110413 
	C804.799561,912.328064 792.852783,919.796997 783.270508,931.652771 
	C782.104553,933.095337 782.030823,935.695740 782.026428,937.760803 
	C781.961182,968.092834 781.993835,998.425110 782.003052,1028.757324 
	C782.003601,1030.577148 782.003113,1032.397095 782.003113,1035.006592 
	C775.011108,1035.006592 768.255554,1035.006592 761.000061,1035.006592 
z"/>
<path fill="#FE7D47" opacity="1.000000" stroke="none" 
	d="
M683.842407,540.000000 
	C683.842285,525.541992 683.842285,511.583984 683.842285,497.315063 
	C697.699463,497.315063 711.099670,497.315063 724.851929,497.315063 
	C724.851929,548.115601 724.851929,598.797607 724.851929,649.747498 
	C711.676941,649.747498 698.739990,649.747498 685.308105,649.747498 
	C684.992188,642.766968 684.673828,635.731812 684.358215,628.757629 
	C677.978821,633.650940 672.289734,638.807861 665.869080,642.783508 
	C649.872498,652.688904 632.303345,654.574402 614.403137,649.849304 
	C595.703735,644.913269 586.486816,631.038330 583.148926,612.797424 
	C582.255981,607.917480 581.929810,602.874268 581.910522,597.903870 
	C581.785706,565.750671 581.814697,533.596924 581.809753,501.443359 
	C581.809570,500.150665 581.974426,498.858002 582.080933,497.292175 
	C595.720398,497.292175 609.121399,497.292175 623.150452,497.292175 
	C623.150452,499.405243 623.150818,501.344147 623.150452,503.283051 
	C623.144531,532.104675 623.033997,560.927002 623.230530,589.747253 
	C623.265259,594.836121 624.033813,600.072937 625.432617,604.964294 
	C627.611023,612.582275 633.388916,616.792908 641.087036,617.853210 
	C658.188965,620.208740 671.592651,613.232788 682.411072,600.540039 
	C683.529602,599.227722 683.790771,596.859619 683.800415,594.978088 
	C683.893921,576.819092 683.848328,558.659485 683.842407,540.000000 
z"/>
<path fill="#FE7E48" opacity="1.000000" stroke="none" 
	d="
M691.008301,1035.002686 
	C682.728333,1034.310669 674.849243,1034.169678 667.182312,1032.821777 
	C647.213562,1029.311157 636.553528,1017.807007 634.058533,997.666931 
	C633.405396,992.394714 633.067017,987.051819 633.040771,981.739136 
	C632.930969,959.422363 632.994385,937.104736 632.994385,914.216858 
	C624.504944,914.216858 616.265137,914.216858 607.677002,914.216858 
	C607.677002,903.258972 607.677002,892.870667 607.677002,882.078857 
	C616.041565,882.078857 624.150940,882.078857 632.871338,882.078857 
	C632.871338,869.977783 632.871338,858.258972 632.871338,846.272339 
	C647.046631,846.272339 660.605957,846.272339 674.663086,846.272339 
	C674.663086,858.135010 674.663086,869.730896 674.663086,881.865906 
	C685.888245,881.865906 696.631531,881.865906 707.684570,881.865906 
	C707.684570,892.665283 707.684570,902.924377 707.684570,913.755493 
	C697.057434,913.755493 686.325073,913.755493 675.349182,913.755493 
	C675.088196,915.353699 674.758057,916.438965 674.756287,917.524780 
	C674.721619,938.689575 674.723938,959.854492 674.724548,981.019348 
	C674.724609,982.018860 674.767151,983.018860 674.809143,984.017822 
	C675.418396,998.489990 680.022766,1002.895508 694.564819,1002.917480 
	C698.856628,1002.923950 703.148438,1002.918518 707.714722,1002.918518 
	C707.714722,1013.677429 707.714722,1023.943298 707.714722,1035.003784 
	C702.352722,1035.003784 696.929260,1035.003784 691.008301,1035.002686 
z"/>
<path fill="#FE7E49" opacity="1.000000" stroke="none" 
	d="
M854.275940,597.848389 
	C854.271667,544.783936 854.271667,492.201385 854.271667,439.307983 
	C868.241333,439.307983 881.798828,439.307983 895.982666,439.307983 
	C895.982666,441.360352 895.983521,443.298584 895.982544,445.236816 
	C895.958313,494.197784 895.908203,543.158752 895.952698,592.119629 
	C895.956726,596.589600 896.236145,601.113892 896.967651,605.516602 
	C898.274414,613.381836 902.071960,616.642883 910.178772,617.124939 
	C914.613831,617.388672 919.077454,617.172058 923.767334,617.172058 
	C923.767334,628.387817 923.767334,638.818665 923.767334,649.920410 
	C906.125977,650.041138 888.442017,651.091248 872.353699,641.896973 
	C860.626892,635.195190 856.991638,623.653809 855.260376,611.267761 
	C854.662903,606.993103 854.591736,602.644897 854.275940,597.848389 
z"/>
<path fill="#FE7D47" opacity="1.000000" stroke="none" 
	d="
M1237.096680,982.000000 
	C1237.096680,999.787048 1237.096680,1017.074097 1237.096680,1034.680298 
	C1222.289673,1034.680298 1207.912354,1034.680298 1193.266846,1034.680298 
	C1193.266846,964.596924 1193.266846,894.707520 1193.266846,824.408875 
	C1207.598755,824.408875 1221.974121,824.408875 1237.096558,824.408875 
	C1237.096558,876.733765 1237.096558,929.116882 1237.096680,982.000000 
z"/>
<path fill="#FE7E48" opacity="1.000000" stroke="none" 
	d="
M540.196472,966.000000 
	C540.196594,937.875610 540.196594,910.251221 540.196594,882.313354 
	C554.263245,882.313354 567.827454,882.313354 581.698364,882.313354 
	C581.698364,933.027222 581.698364,983.616699 581.698364,1034.604736 
	C568.187073,1034.604736 554.617126,1034.604736 540.196350,1034.604736 
	C540.196350,1011.989319 540.196350,989.244690 540.196472,966.000000 
z"/>
<path fill="#FE7D47" opacity="1.000000" stroke="none" 
	d="
M769.941895,527.000000 
	C769.941895,516.877197 769.941895,507.254456 769.941895,497.318817 
	C783.759827,497.318817 797.153198,497.318817 810.948730,497.318817 
	C810.948730,548.052368 810.948730,598.704895 810.948730,649.679199 
	C797.467285,649.679199 784.063721,649.679199 769.941895,649.679199 
	C769.941895,608.927795 769.941895,568.213867 769.941895,527.000000 
z"/>
<path fill="#FE7E49" opacity="1.000000" stroke="none" 
	d="
M542.527954,828.580383 
	C549.792297,819.876038 567.348267,820.088013 575.315735,824.721008 
	C582.286133,828.774353 586.001587,837.070068 584.483887,845.237854 
	C582.788147,854.362915 576.445740,860.482178 566.257629,861.555908 
	C561.416931,862.065979 556.185303,861.736572 551.512512,860.426147 
	C538.091309,856.662415 533.776306,841.214539 542.527954,828.580383 
z"/>
<path fill="#FE7E49" opacity="1.000000" stroke="none" 
	d="
M768.184387,450.418152 
	C771.958984,440.197357 779.889954,436.798065 789.497192,436.559845 
	C798.060730,436.347504 806.127441,437.927490 811.222473,445.999207 
	C818.456482,457.459717 812.559509,472.474884 799.495056,475.866791 
	C783.639648,479.983307 770.244690,473.687897 767.728577,460.616241 
	C767.125366,457.482727 767.923096,454.079498 768.184387,450.418152 
z"/>
<path fill="#FCF1E7" opacity="1.000000" stroke="none" 
	d="
M431.270020,600.973755 
	C431.270233,586.533386 431.270233,572.587646 431.270233,557.916870 
	C449.542786,559.076477 467.410400,555.673096 484.852966,560.957275 
	C497.272522,564.719727 502.928986,572.118225 502.985687,584.105408 
	C503.050629,597.835632 497.020874,607.307373 484.778625,610.673035 
	C477.966003,612.545959 470.712524,613.182556 463.614532,613.556885 
	C454.811523,614.021118 445.957672,613.436584 437.137878,613.704224 
	C432.752106,613.837341 430.502991,612.807800 431.217285,607.957214 
	C431.529388,605.837708 431.269775,603.633972 431.270020,600.973755 
z"/>
<path fill="#FCF1E7" opacity="1.000000" stroke="none" 
	d="
M431.270020,508.994995 
	C431.270203,497.546539 431.270203,486.597260 431.270203,474.816772 
	C435.587158,474.816772 439.503052,474.698883 443.409515,474.840271 
	C452.689453,475.176270 462.085999,474.850372 471.209290,476.257782 
	C480.965546,477.762817 487.198090,484.117737 488.430664,494.336914 
	C489.646515,504.417023 487.501892,513.485779 478.185211,518.978577 
	C474.014038,521.437683 469.038208,523.513184 464.298889,523.828308 
	C453.575562,524.541443 442.772278,524.052612 431.269806,524.052612 
	C431.269806,519.024658 431.269806,514.259460 431.270020,508.994995 
z"/>
<path fill="#FCF2E8" opacity="1.000000" stroke="none" 
	d="
M1055.615723,907.609680 
	C1059.848267,894.649109 1063.918945,882.051270 1068.402222,868.176453 
	C1077.675415,896.661499 1086.546143,923.910400 1095.582520,951.668579 
	C1077.176880,951.668579 1059.480835,951.668579 1041.292358,951.668579 
	C1046.057983,936.963989 1050.755859,922.468201 1055.615723,907.609680 
z"/>
<path fill="#FCF2E8" opacity="1.000000" stroke="none" 
	d="
M1020.519897,620.798340 
	C1003.651306,621.515320 993.374329,614.524109 988.995605,598.758240 
	C984.370361,582.104797 983.868469,565.166870 989.005615,548.551941 
	C996.439270,524.509521 1023.497620,518.043030 1041.471680,535.748596 
	C1043.832764,538.074463 1045.998169,540.623657 1048.058838,543.224304 
	C1051.672241,547.784790 1053.427979,552.796753 1053.171387,558.878784 
	C1052.715820,569.677124 1053.343140,580.521484 1052.879150,591.319092 
	C1052.719238,595.041443 1051.427124,599.213928 1049.321899,602.261963 
	C1042.473267,612.177734 1033.406738,619.184143 1020.519897,620.798340 
z"/>
</svg>